<?xml version="1.0" encoding="UTF-8" standalone="no"?>
<svg version="1.1" width="32" height="32" viewBox="-10.666666 -10.666666 21.333333 21.333333" xmlns="http://www.w3.org/2000/svg">
<g transform="scale(.103559)">
  <circle r="100" fill="#1d6fff"/>
  <circle r="100" fill="none" stroke="#000079" stroke-width="3"/>
  <path d="m 13.910803,-57.558653 c 0,2.641192 -1.228714,4.895868 -3.773908,6.764028 -2.5451945,1.86816 -5.6169815,2.83445 -9.2153595,2.83445 -3.5983781,0 -6.6701643,-0.96629 -9.2153586,-2.83445 -2.5451949,-1.86816 -3.8616739,-4.122836 -3.8616739,-6.764028 0,-2.705611 1.228714,-4.960287 3.7739086,-6.764027 2.5451943,-1.86816 5.6169805,-2.770031 9.3031239,-2.770031 3.598378,0 6.670165,0.901871 9.2153595,2.770031 2.545194,1.86816 3.773908,4.122836 3.773908,6.764027 0,0 0,0 0,0 z M 29.533032,67.092711 c 0,0 -57.222991,0 -57.222991,0 0,0 0,-3.414214 0,-3.414214 8.688767,0 14.130217,-1.739325 16.32435,-5.282384 1.140949,-1.868163 1.6675407,-5.475641 1.6675407,-10.822444 0,0 0,-33.304785 0,-33.304785 0,-9.4052195 -0.3510607,-15.5250606 -1.1409497,-18.2306653 -1.053183,-3.5430654 -3.773908,-5.3468094 -8.162174,-5.3468094 -2.369663,0 -5.265919,0.4509384 -8.688767,1.4172281 0,0 -1.843072,-3.4142234 -1.843072,-3.4142234 0,0 35.5449555,-10.564771 35.5449555,-10.564771 0,0 5.6169805,0 5.6169805,0 0,0 0,69.444026 0,69.444026 0,8.116833 2.194133,13.012704 6.406869,14.816435 2.106367,0.837458 5.880276,1.288393 11.497258,1.288393 0,0 0,3.414214 0,3.414214" fill="#eaffff" stroke="none"/>
</g>
</svg>
