<?xml version="1.0" encoding="UTF-8" standalone="no"?>
<!-- Created with Inkscape (http://www.inkscape.org/) -->

<svg
   xmlns:dc="http://purl.org/dc/elements/1.1/"
   xmlns:cc="http://creativecommons.org/ns#"
   xmlns:rdf="http://www.w3.org/1999/02/22-rdf-syntax-ns#"
   xmlns:svg="http://www.w3.org/2000/svg"
   xmlns="http://www.w3.org/2000/svg"
   xmlns:xlink="http://www.w3.org/1999/xlink"
   xmlns:sodipodi="http://sodipodi.sourceforge.net/DTD/sodipodi-0.dtd"
   xmlns:inkscape="http://www.inkscape.org/namespaces/inkscape"
   width="744.09448819"
   height="1052.3622047"
   id="svg2"
   version="1.1"
   inkscape:version="0.48.5 r10040"
   sodipodi:docname="ui.svg"
   inkscape:export-filename="/home/ags/projects/yast/yast.github.io/doc/images/ui.png"
   inkscape:export-xdpi="62.976566"
   inkscape:export-ydpi="62.976566">
  <defs
     id="defs4">
    <marker
       inkscape:stockid="Arrow1Lend"
       orient="auto"
       refY="0.0"
       refX="0.0"
       id="Arrow1Lend"
       style="overflow:visible;">
      <path
         id="path4117"
         d="M 0.0,0.0 L 5.0,-5.0 L -12.5,0.0 L 5.0,5.0 L 0.0,0.0 z "
         style="fill-rule:evenodd;stroke:#000000;stroke-width:1.0pt;"
         transform="scale(0.8) rotate(180) translate(12.5,0)" />
    </marker>
    <marker
       inkscape:stockid="Arrow1Lstart"
       orient="auto"
       refY="0.0"
       refX="0.0"
       id="Arrow1Lstart"
       style="overflow:visible">
      <path
         id="path4114"
         d="M 0.0,0.0 L 5.0,-5.0 L -12.5,0.0 L 5.0,5.0 L 0.0,0.0 z "
         style="fill-rule:evenodd;stroke:#000000;stroke-width:1.0pt"
         transform="scale(0.8) translate(12.5,0)" />
    </marker>
    <inkscape:perspective
       sodipodi:type="inkscape:persp3d"
       inkscape:vp_x="328.10524 : 551.109 : 1"
       inkscape:vp_y="0 : 1000 : 0"
       inkscape:vp_z="616.76 : 545.04546 : 1"
       inkscape:persp3d-origin="372.04724 : 350.78739 : 1"
       id="perspective3260" />
    <linearGradient
       gradientTransform="matrix(-2.8512357,0.5265033,0.5265033,2.8512357,133.59163,-26.137463)"
       gradientUnits="userSpaceOnUse"
       xlink:href="#linearGradient4356"
       id="linearGradient2387"
       y2="36.217758"
       x2="22.626925"
       y1="35.817974"
       x1="20.661695" />
    <radialGradient
       gradientTransform="matrix(2.8994389,0,0,1.9771767,11.79611,24.952566)"
       gradientUnits="userSpaceOnUse"
       xlink:href="#linearGradient4344"
       id="radialGradient2383"
       fy="19.836468"
       fx="16.214741"
       r="13.56536"
       cy="19.836468"
       cx="16.214741" />
    <linearGradient
       gradientTransform="matrix(2.8512357,0.5265033,-0.5265033,2.8512357,-8.70906,-27.407511)"
       gradientUnits="userSpaceOnUse"
       xlink:href="#linearGradient4356"
       id="linearGradient2374"
       y2="36.217758"
       x2="22.626925"
       y1="35.817974"
       x1="20.661695" />
    <radialGradient
       gradientTransform="matrix(0.787998,0,0,0.787998,6.221198,3.617627)"
       gradientUnits="userSpaceOnUse"
       xlink:href="#linearGradient4338"
       id="radialGradient2341"
       fy="17.064077"
       fx="29.344931"
       r="9.1620579"
       cy="17.064077"
       cx="29.344931" />
    <radialGradient
       gradientUnits="userSpaceOnUse"
       xlink:href="#linearGradient3816"
       id="radialGradient2339"
       fy="19.008621"
       fx="31.112698"
       r="8.6620579"
       cy="19.008621"
       cx="31.112698" />
    <radialGradient
       gradientUnits="userSpaceOnUse"
       xlink:href="#linearGradient3816"
       id="radialGradient4179"
       fy="19.008621"
       fx="31.112698"
       r="8.6620579"
       cy="19.008621"
       cx="31.112698" />
    <linearGradient
       id="linearGradient3816">
      <stop
         offset="0"
         style="stop-color:#000000;stop-opacity:1"
         id="stop3818" />
      <stop
         offset="1"
         style="stop-color:#000000;stop-opacity:0"
         id="stop3820" />
    </linearGradient>
    <linearGradient
       id="linearGradient4338">
      <stop
         offset="0"
         style="stop-color:#e9b15e;stop-opacity:1"
         id="stop4340" />
      <stop
         offset="1"
         style="stop-color:#966416;stop-opacity:1"
         id="stop4342" />
    </linearGradient>
    <linearGradient
       id="linearGradient4344">
      <stop
         offset="0"
         style="stop-color:#727e0a;stop-opacity:1"
         id="stop4346" />
      <stop
         offset="1"
         style="stop-color:#5b6508;stop-opacity:1"
         id="stop4348" />
    </linearGradient>
    <linearGradient
       id="linearGradient4356">
      <stop
         offset="0"
         style="stop-color:#000000;stop-opacity:1"
         id="stop4358" />
      <stop
         offset="1"
         style="stop-color:#000000;stop-opacity:0"
         id="stop4360" />
    </linearGradient>
    <filter
       inkscape:collect="always"
       id="filter4104">
      <feGaussianBlur
         inkscape:collect="always"
         stdDeviation="0.87663078"
         id="feGaussianBlur4106" />
    </filter>
    <marker
       inkscape:stockid="Arrow1Lstart"
       orient="auto"
       refY="0"
       refX="0"
       id="Arrow1Lstart-1"
       style="overflow:visible">
      <path
         inkscape:connector-curvature="0"
         id="path4114-5"
         d="M 0,0 5,-5 -12.5,0 5,5 0,0 z"
         style="fill-rule:evenodd;stroke:#000000;stroke-width:1pt"
         transform="matrix(0.8,0,0,0.8,10,0)" />
    </marker>
    <marker
       inkscape:stockid="Arrow1Lend"
       orient="auto"
       refY="0"
       refX="0"
       id="Arrow1Lend-6"
       style="overflow:visible">
      <path
         inkscape:connector-curvature="0"
         id="path4117-0"
         d="M 0,0 5,-5 -12.5,0 5,5 0,0 z"
         style="fill-rule:evenodd;stroke:#000000;stroke-width:1pt"
         transform="matrix(-0.8,0,0,-0.8,-10,0)" />
    </marker>
    <filter
       color-interpolation-filters="sRGB"
       inkscape:collect="always"
       id="filter4104-0">
      <feGaussianBlur
         inkscape:collect="always"
         stdDeviation="0.87663078"
         id="feGaussianBlur4106-8" />
    </filter>
  </defs>
  <sodipodi:namedview
     id="base"
     pagecolor="#ffffff"
     bordercolor="#666666"
     borderopacity="1.0"
     inkscape:pageopacity="0.0"
     inkscape:pageshadow="2"
     inkscape:zoom="1.4842799"
     inkscape:cx="190.73282"
     inkscape:cy="661.26343"
     inkscape:document-units="px"
     inkscape:current-layer="layer1"
     showgrid="false"
     inkscape:window-width="1920"
     inkscape:window-height="1060"
     inkscape:window-x="1078"
     inkscape:window-y="291"
     inkscape:window-maximized="1" />
  <metadata
     id="metadata7">
    <rdf:RDF>
      <cc:Work
         rdf:about="">
        <dc:format>image/svg+xml</dc:format>
        <dc:type
           rdf:resource="http://purl.org/dc/dcmitype/StillImage" />
        <dc:title></dc:title>
      </cc:Work>
    </rdf:RDF>
  </metadata>
  <g
     inkscape:label="Layer 1"
     inkscape:groupmode="layer"
     id="layer1">
    <g
       id="g3058"
       transform="matrix(1.7620128,0,0,1.5051655,278.8174,124.36103)">
      <g
         style="display:inline"
         id="layer1-6" />
      <g
         style="display:inline"
         id="layer2">
        <path
           style="fill:url(#radialGradient4179);fill-opacity:1;fill-rule:evenodd;stroke:none;stroke-width:1px;marker:none;visibility:visible;display:inline;overflow:visible"
           id="path4306"
           transform="matrix(5.1479827,0,0,1.6932259,-96.037255,70.585083)"
           d="m 39.774755,19.008621 a 8.6620579,8.6620579 0 1 1 -17.324115,0 8.6620579,8.6620579 0 1 1 17.324115,0 z"
           inkscape:connector-curvature="0" />
        <path
           style="fill:url(#radialGradient2383);fill-opacity:1;fill-rule:evenodd;stroke:#404604;stroke-width:2.89943886px;stroke-linecap:round;stroke-linejoin:round;stroke-miterlimit:4;stroke-opacity:1;stroke-dasharray:none;stroke-dashoffset:0;marker:none;visibility:visible;display:inline;overflow:visible"
           id="path2329"
           d="m 49.0863,101.50432 30.7532,0 c 8.7134,0 17.34004,-3.194983 20.50212,-12.301276 3.00278,-8.647507 0.51256,-25.115108 -18.96446,-38.441492 l -36.39128,0 C 25.50885,63.062828 23.07484,79.885926 27.55907,89.715595 32.12741,99.729647 39.86034,101.50432 49.0863,101.50432 z"
           inkscape:connector-curvature="0" />
        <path
           style="fill:#9db029;fill-opacity:1;fill-rule:evenodd;stroke:none;stroke-width:1px;marker:none;visibility:visible;display:inline;overflow:visible"
           id="path3812"
           d="m 63.78992,58.449852 c 0,0 -6.23763,4.81404 -5.70028,10.613492 -5.91841,-5.221292 -6.08845,-15.226473 -6.08845,-15.226473 l 11.78873,4.612981 z"
           inkscape:connector-curvature="0" />
        <path
           style="opacity:0.21518986;fill:none;stroke:#ffffff;stroke-width:2.89943814px;stroke-linecap:round;stroke-linejoin:round;stroke-miterlimit:4;stroke-opacity:1;stroke-dasharray:none;stroke-dashoffset:0;marker:none;visibility:visible;display:inline;overflow:visible"
           id="path3838"
           d="m 49.39209,98.41873 29.91256,0 c 7.65371,0 15.23122,-2.806422 18.00874,-10.805243 2.63758,-7.595834 -0.27465,-22.060711 -17.38295,-33.766392 l -33.41524,0 C 29.4069,64.652338 26.54404,79.429479 30.48291,88.063703 34.49567,96.859888 41.28816,98.41873 49.39209,98.41873 z"
           inkscape:connector-curvature="0" />
        <path
           style="fill:#9db029;fill-opacity:1;fill-rule:evenodd;stroke:none;stroke-width:1px;marker:none;visibility:visible;display:inline;overflow:visible"
           id="path3810"
           d="m 64.62681,59.449852 c 0,0 6.23763,4.81404 5.70027,10.613492 5.91841,-5.221292 6.08845,-15.226473 6.08845,-15.226473 l -11.78872,4.612981 z"
           inkscape:connector-curvature="0" />
        <path
           style="fill:url(#radialGradient2339);fill-opacity:1;fill-rule:evenodd;stroke:none;stroke-width:1px;marker:none;visibility:visible;display:inline;overflow:visible"
           id="path3814"
           transform="matrix(2.8994389,0,0,2.8994389,-26.62145,-9.068792)"
           d="m 39.774755,19.008621 a 8.6620579,8.6620579 0 1 1 -17.324115,0 8.6620579,8.6620579 0 1 1 17.324115,0 z"
           inkscape:connector-curvature="0" />
        <path
           style="fill:url(#radialGradient2341);fill-opacity:1;fill-rule:evenodd;stroke:#6f4709;stroke-width:1px;stroke-linecap:round;stroke-linejoin:round;stroke-miterlimit:4;stroke-opacity:1;stroke-dasharray:none;stroke-dashoffset:0;marker:none;visibility:visible;display:inline;overflow:visible"
           id="path2327"
           transform="matrix(2.8994389,0,0,2.8994389,-26.25902,-19.216828)"
           d="m 39.774755,19.008621 a 8.6620579,8.6620579 0 1 1 -17.324115,0 8.6620579,8.6620579 0 1 1 17.324115,0 z"
           inkscape:connector-curvature="0" />
        <path
           style="opacity:0.12658231;fill:none;stroke:#ffffff;stroke-width:1.14012825px;stroke-linecap:round;stroke-linejoin:round;stroke-miterlimit:4;stroke-opacity:1;stroke-dasharray:none;stroke-dashoffset:0;marker:none;visibility:visible;display:inline;overflow:visible"
           id="path3834"
           transform="matrix(2.5430833,0,0,2.5430833,-15.17178,-12.442965)"
           d="m 39.774755,19.008621 a 8.6620579,8.6620579 0 1 1 -17.324115,0 8.6620579,8.6620579 0 1 1 17.324115,0 z"
           inkscape:connector-curvature="0" />
        <path
           style="opacity:0.22784807;fill:url(#linearGradient2374);fill-opacity:1;fill-rule:evenodd;stroke:none;stroke-width:1px;marker:none;visibility:visible;display:inline;overflow:visible"
           id="path4368"
           d="m 36.58038,98.505455 c -3.61736,-1.580104 -5.23637,-5.38796 -5.23637,-5.38796 2.43925,-11.798211 10.7857,-20.430073 10.7857,-20.430073 0,0 -6.60875,18.589793 -5.54933,25.818033 z"
           inkscape:connector-curvature="0" />
        <path
           style="opacity:0.22784807;fill:url(#linearGradient2387);fill-opacity:1;fill-rule:evenodd;stroke:none;stroke-width:1px;marker:none;visibility:visible;display:inline;overflow:visible"
           id="path2385"
           d="m 88.302187,99.7755 c 3.61736,-1.5801 5.23637,-5.38796 5.23637,-5.38796 -2.43925,-11.79821 -10.7857,-20.43007 -10.7857,-20.43007 0,0 6.60875,18.58979 5.54933,25.81803 z"
           inkscape:connector-curvature="0" />
      </g>
    </g>
    <g
       id="g6038"
       transform="translate(-61.98292,-11.453365)">
      <g
         transform="matrix(0.37615386,0,0,0.3635071,348.45661,327.44123)"
         id="layer1-0">
        <path
           inkscape:connector-curvature="0"
           d="M 20.88413,30.82696 53.816977,55.527708 107.33282,39.060543 70.587303,17.177763 20.88413,30.82696 z"
           id="path6976"
           style="fill:#729fcf;fill-opacity:1;fill-rule:evenodd;stroke:#ffffff;stroke-width:2.12364459;stroke-linecap:butt;stroke-linejoin:round;stroke-miterlimit:4;stroke-opacity:1;stroke-dasharray:none;display:inline" />
        <path
           inkscape:connector-curvature="0"
           d="m 22.94243,82.287118 -2.0583,-51.460158 32.932847,24.700748 0,55.577152 L 22.94243,82.287118 z"
           id="path6978"
           style="fill:#e40000;fill-opacity:1;fill-rule:evenodd;stroke:#ffffff;stroke-width:2.12364459;stroke-linecap:butt;stroke-linejoin:round;stroke-miterlimit:4;stroke-opacity:1;stroke-dasharray:none;display:inline" />
        <path
           inkscape:connector-curvature="0"
           d="m 53.816977,111.10486 49.399213,-20.58416 4.11663,-51.460157 -53.515843,16.467165 0,55.577152 z"
           id="path6980"
           style="fill:#7fe719;fill-opacity:1;fill-rule:evenodd;stroke:#ffffff;stroke-width:2.12364459;stroke-linecap:butt;stroke-linejoin:round;stroke-miterlimit:4;stroke-opacity:1;stroke-dasharray:none;display:inline" />
        <path
           inkscape:connector-curvature="0"
           d="M 23.216626,81.319479 70.48573,67.361442 103.38422,90.444516"
           id="path6982"
           style="fill:none;stroke:#ffffff;stroke-width:1.25;stroke-linecap:butt;stroke-linejoin:miter;stroke-miterlimit:4;stroke-opacity:1;stroke-dasharray:none" />
        <path
           inkscape:connector-curvature="0"
           d="m 70.434539,17.875593 0,49.109284"
           id="path6984"
           style="fill:#babdb6;fill-rule:evenodd;stroke:#ffffff;stroke-width:1.25;stroke-linecap:butt;stroke-linejoin:miter;stroke-miterlimit:4;stroke-opacity:1;stroke-dasharray:none" />
      </g>
      <text
         transform="scale(0.83106444,1.2032761)"
         sodipodi:linespacing="125%"
         id="text3166"
         y="309.71411"
         x="394.17523"
         style="font-size:30.40452385px;font-style:normal;font-weight:normal;line-height:125%;letter-spacing:0px;word-spacing:0px;fill:#000000;fill-opacity:1;stroke:none;font-family:Sans"
         xml:space="preserve"><tspan
           y="309.71411"
           x="394.17523"
           id="tspan3168"
           sodipodi:role="line">Gtk+</tspan></text>
    </g>
    <g
       id="g3228"
       transform="matrix(0.25086389,0,0,0.25086389,366.30927,315.86005)">
      <rect
         style="fill:#ffffff;fill-opacity:1;stroke:none"
         id="rect2998"
         y="28.282665"
         x="24.354517"
         height="147.69836"
         width="136.69954" />
      <g
         id="layer1-1"
         transform="translate(-46.4049,32.5083)">
        <g
           id="g2396"
           transform="translate(432,-133)">
          <path
             style="fill:#7cc040"
             id="path2400"
             d="m -378.33328,299.25358 -7.26184,-6.67711 0.0118,-84.71249 c 0.0117,-83.62609 0.0388,-84.78455 2.11435,-90.33196 4.43707,-11.85913 11.10713,-15.89306 27.89749,-16.87189 10.06981,-0.58704 13.18358,-0.16957 76,10.18948 l 65.5,10.8016 0,69.96263 c 0,53.90228 -0.29319,70.92859 -1.27722,74.17058 -1.56788,5.16554 -6.72925,12.10273 -10.73743,14.43174 -1.98699,1.15457 -26.06029,5.60398 -71.98535,13.30489 -37.95,6.36361 -69.9,11.75908 -71,11.98992 -1.4051,0.29487 -4.16003,-1.56638 -9.26184,-6.25739 z m 91.38684,-23.17711 c 2.25641,0 2.375,-0.32456 2.375,-6.5 0,-5.78113 -0.21599,-6.5 -1.95295,-6.5 -3.70388,0 -6.85214,-2.24136 -8.60347,-6.12513 -0.96609,-2.14239 -1.57361,-4.03559 -1.35005,-4.2071 0.22356,-0.17151 2.53288,-1.52939 5.13182,-3.01751 12.90306,-7.38812 18.68728,-23.96169 18.72409,-53.65026 0.0443,-35.70973 -8.94704,-52.63835 -30.26591,-56.98381 -6.70354,-1.3664 -14.30708,-0.63312 -20.27292,1.95511 -8.91148,3.86617 -15.69871,14.21474 -19.03883,29.0287 -2.37545,10.5355 -2.34662,39.37509 0.0505,50.5 3.51644,16.31976 11.81536,28.41254 21.77764,31.7333 3.68933,1.22977 4.20364,1.83831 5.7544,6.80859 2.41185,7.73016 4.56676,11.48088 8.00116,13.92639 3.43513,2.44602 10.23575,4.07656 14.41955,3.45728 1.58125,-0.23406 3.94375,-0.42556 5.25,-0.42556 z m -22.60906,-37.30473 c -3.04896,-1.52007 -6.70937,-6.83665 -7.98395,-11.59631 -4.16759,-15.56307 -3.81851,-54.0943 0.58989,-65.11198 2.00113,-5.00129 6.62237,-8.98698 10.42005,-8.98698 4.20244,0 9.48751,5.06719 11.45111,10.97905 3.47238,10.45434 4.05746,45.54877 1.00529,60.29934 -2.42686,11.72859 -8.85965,17.71867 -15.48239,14.41688 z m 66.98406,7.25641 c 9.46242,-2.10155 10,-2.56605 10,-8.64039 0,-4.71812 -0.23391,-5.37657 -1.75,-4.92617 -5.99778,1.78186 -7.39498,1.79365 -9.29029,0.0784 -1.84998,-1.6742 -1.95971,-3.22064 -1.95971,-27.61852 l 0,-25.84501 6,0 6,0 0,-5.87083 0,-5.87084 -6,-0.67882 -6,-0.67882 0,-9.39133 c 0,-5.16523 -0.3375,-9.59681 -0.75,-9.84796 -0.4125,-0.25114 -2.9657,-0.6152 -5.67377,-0.80901 l -4.92378,-0.35239 -1.71558,7 c -0.94357,3.85 -1.99895,8.2375 -2.34528,9.75 -0.53873,2.35272 -1.13256,2.75 -4.11064,2.75 l -3.48095,0 0,6.5 0,6.5 3,0 3,0 0,29.03984 c 0,35.48318 0.3987,36.84529 11.5,39.28807 3.19245,0.70248 3.75518,0.67757 8.5,-0.37623 z"
             inkscape:connector-curvature="0" />
          <path
             style="fill:#016123"
             id="path2398"
             d="m -378.85274,298.29747 -5.7187,-5.77899 0,-85.35499 c 0,-61.88383 0.31913,-86.42015 1.16056,-89.22858 1.48069,-4.94212 6.97518,-11.37688 11.82873,-13.85298 2.07592,-1.05905 6.86507,-2.17885 10.64255,-2.48844 5.07942,-0.41629 6.2698,-0.30029 4.57064,0.4454 -4.94565,2.17044 -9.27463,6.48477 -11.92778,11.88743 l -2.7747,5.65015 -0.27987,92.25 c -0.15393,50.7375 -0.61802,92.25 -1.03131,92.25 -0.41328,0 -3.32484,-2.60055 -6.47012,-5.779 z m 71.06515,-22.41569 c -4.72952,-1.25739 -9.9682,-6.99399 -12.23849,-13.40172 -0.95556,-2.69697 -2.09542,-5.83025 -2.53302,-6.96284 -0.47618,-1.23245 -2.41587,-2.54468 -4.83102,-3.26828 -8.94116,-2.67884 -17.28444,-14.70117 -20.9091,-30.1292 -2.60283,-11.07867 -2.53035,-44.63455 0.1178,-54.54327 4.04993,-15.15377 11.74578,-24.97801 21.93753,-28.00463 6.56814,-1.95053 10.5804,-1.83637 4.99668,0.14217 -9.40476,3.33248 -16.3244,12.40347 -20.51453,26.89258 -2.09438,7.24219 -2.29813,9.88728 -2.23155,28.96988 0.0632,18.12683 0.36179,22.04722 2.18212,28.65411 4.10071,14.88354 10.26665,23.43542 20.10186,27.88038 4.5157,2.04084 5.29584,2.83845 6.25298,6.39301 2.27779,8.45903 6.80455,14.60181 12.68316,17.21094 2.15525,0.95658 2.29719,1.19465 0.70173,1.17699 -1.1,-0.0122 -3.67227,-0.46673 -5.71615,-1.01012 z m 47.30981,-30.11175 c -7.88148,-2.76162 -9.09366,-8.3944 -9.09366,-42.25673 0,-22.83622 -0.16216,-25.32156 -1.67124,-25.61351 -1.16362,-0.22511 -2.03969,-2.14578 -2.88427,-6.32332 -0.66716,-3.3 -1.01354,-6.3375 -0.76974,-6.75 0.24381,-0.4125 1.54173,-0.75 2.88427,-0.75 2.3555,0 2.44098,0.24513 2.44098,7 l 0,7 2.94445,0 2.94446,0 0.30554,29.25 c 0.33915,32.46628 0.5938,33.82092 7.1041,37.79048 2.49688,1.52244 2.76129,1.94044 1.20145,1.89934 -1.1,-0.029 -3.53285,-0.58981 -5.40634,-1.24626 z m -45.8338,-9.44356 c 5.64105,-5.88938 7.74014,-16.98166 7.74014,-40.90141 0,-22.89925 -2.73061,-35.94521 -8.34695,-39.87905 -2.03937,-1.42843 -2.01168,-1.46954 0.98958,-1.46954 10.23612,0 14.05235,14.15285 13.07774,48.5 -0.54192,19.09814 -1.79461,26.63129 -5.32436,32.01836 -1.6232,2.47731 -5.48286,4.48164 -8.63015,4.48164 -2.06696,0 -2.05009,-0.0939 0.494,-2.75 z m 65.24014,-4.25 c 1.1,-0.47269 3.35,-0.85943 5,-0.85943 2.55762,0 2.70508,0.12673 1,0.85943 -1.1,0.47269 -3.35,0.85943 -5,0.85943 -2.55762,0 -2.70508,-0.12673 -1,-0.85943 z m -26.20254,-69.25 c 4.3707,-19.12226 3.82937,-17.75 7.00201,-17.75 2.53638,0 2.85533,0.30004 2.35456,2.215 -0.31858,1.21824 -1.33616,5.71824 -2.26129,10 -1.63858,7.58382 -1.75864,7.785 -4.6458,7.785 -2.55924,0 -2.89356,-0.3071 -2.44948,-2.25 z"
             inkscape:connector-curvature="0" />
        </g>
      </g>
    </g>
    <text
       xml:space="preserve"
       style="font-size:30.40452385px;font-style:normal;font-weight:normal;line-height:125%;letter-spacing:0px;word-spacing:0px;fill:#000000;fill-opacity:1;stroke:none;font-family:Sans"
       x="515.9502"
       y="296.8894"
       id="text3166-8"
       sodipodi:linespacing="125%"
       transform="scale(0.83106445,1.2032761)"><tspan
         sodipodi:role="line"
         id="tspan3168-0"
         x="515.9502"
         y="296.8894">Ncurses</tspan></text>
    <path
       style="fill:none;stroke:#000000;stroke-width:0.61482596px;stroke-linecap:butt;stroke-linejoin:miter;stroke-opacity:1"
       d="m 389.41443,298.04614 0.67373,16.29929"
       id="path6078"
       inkscape:connector-type="polyline"
       inkscape:connector-curvature="0" />
    <path
       style="fill:none;stroke:#000000;stroke-width:0.69049066px;stroke-linecap:butt;stroke-linejoin:miter;stroke-opacity:1"
       d="m 357.74924,296.44005 -30.31773,20.23673"
       id="path6080"
       inkscape:connector-type="polyline"
       inkscape:connector-curvature="0" />
    <path
       style="fill:none;stroke:#000000;stroke-width:0.69049066px;stroke-linecap:butt;stroke-linejoin:miter;stroke-opacity:1"
       d="m 423.43766,297.2431 30.31773,20.23673"
       id="path6080-7"
       inkscape:connector-type="polyline"
       inkscape:connector-curvature="0" />
    <rect
       style="fill:none;stroke:#000000;stroke-width:1.39508891;stroke-linejoin:round;stroke-miterlimit:4;stroke-opacity:1;stroke-dasharray:none"
       id="rect3292"
       width="270.44684"
       height="78.152374"
       x="270.05005"
       y="385.77451" />
    <text
       xml:space="preserve"
       style="font-size:40px;font-style:normal;font-variant:normal;font-weight:normal;font-stretch:normal;text-align:start;line-height:125%;letter-spacing:0px;word-spacing:0px;writing-mode:lr-tb;text-anchor:start;fill:#000000;fill-opacity:1;stroke:none;font-family:Sans;-inkscape-font-specification:Sans"
       x="351.38672"
       y="438.0929"
       id="text6102"
       sodipodi:linespacing="125%"><tspan
         sodipodi:role="line"
         id="tspan6104"
         x="351.38672"
         y="438.0929">libyui</tspan></text>
    <path
       style="fill:none;stroke:#000000;stroke-width:0.60968173px;stroke-linecap:butt;stroke-linejoin:miter;stroke-opacity:1"
       d="m 405.27345,369.52721 0,11.51989"
       id="path6111"
       inkscape:connector-type="polyline"
       inkscape:connector-curvature="0" />
    <path
       style="fill:none;stroke:#000000;stroke-width:0.60968173px;stroke-linecap:butt;stroke-linejoin:miter;stroke-opacity:1"
       d="m 404.93659,369.27677 0.67373,12.02076"
       id="path6113"
       inkscape:connector-type="polyline"
       inkscape:connector-curvature="0" />
    <path
       style="fill:none;stroke:#000000;stroke-width:0.60968173px;stroke-linecap:butt;stroke-linejoin:miter;stroke-opacity:1"
       d="m 404.93659,368.02461 0.67373,13.02249"
       id="path6115"
       inkscape:connector-type="polyline"
       inkscape:connector-curvature="0" />
    <rect
       style="fill:none;stroke:#000000;stroke-width:1.40391016;stroke-linejoin:round;stroke-miterlimit:4;stroke-opacity:1;stroke-dasharray:none"
       id="rect3292-3"
       width="273.87778"
       height="78.152374"
       x="268.33456"
       y="469.76157" />
    <text
       xml:space="preserve"
       style="font-size:40px;font-style:normal;font-variant:normal;font-weight:normal;font-stretch:normal;text-align:start;line-height:125%;letter-spacing:0px;word-spacing:0px;writing-mode:lr-tb;text-anchor:start;fill:#000000;fill-opacity:1;stroke:none;font-family:Sans;-inkscape-font-specification:Sans"
       x="302.72461"
       y="522.0799"
       id="text6102-5"
       sodipodi:linespacing="125%"><tspan
         sodipodi:role="line"
         id="tspan6104-9"
         x="302.72461"
         y="522.0799">UI module</tspan></text>
    <text
       xml:space="preserve"
       style="font-size:40px;font-style:normal;font-weight:normal;line-height:125%;letter-spacing:0px;word-spacing:0px;fill:#000000;fill-opacity:1;stroke:none;font-family:Sans"
       x="289.70279"
       y="602.65527"
       id="text6162"
       sodipodi:linespacing="125%"><tspan
         sodipodi:role="line"
         id="tspan6164"
         x="289.70279"
         y="602.65527" /></text>
    <rect
       style="fill:none;stroke:#000000;stroke-width:1.24609053;stroke-linejoin:round;stroke-miterlimit:4;stroke-opacity:1;stroke-dasharray:none"
       id="rect6187"
       width="287.702"
       height="141.02827"
       x="261.42245"
       y="468.36124" />
    <text
       xml:space="preserve"
       style="font-size:48px;font-style:normal;font-variant:normal;font-weight:normal;font-stretch:normal;text-align:start;line-height:125%;letter-spacing:0px;word-spacing:0px;writing-mode:lr-tb;text-anchor:start;fill:#000000;fill-opacity:1;stroke:none;font-family:Sans;-inkscape-font-specification:Sans"
       x="357.85938"
       y="605.7868"
       id="text6189"
       sodipodi:linespacing="125%"><tspan
         sodipodi:role="line"
         id="tspan6191"
         x="357.85938"
         y="605.7868">Yast</tspan></text>
  </g>
</svg>
