<?xml version="1.0" encoding="UTF-8" standalone="no"?>
<svg width="36" height="32" version="1.0" viewBox="0 0 35.4372 31.3476" xml:space="preserve" xmlns="http://www.w3.org/2000/svg">
<g transform="scale(.085714)">
  <path d="m222.26365 25.584927s-5.08917-11.009168-15.54612-11.008183c-10.45694 0-15.55891 11.007199-15.55891 11.007199l-173.398344 300.352227s-6.988026 9.9116-1.76005 18.96877c5.228962 9.05618 17.313059 7.96944 17.313059 7.96944l346.812425 0.0108s12.07819 1.09659 17.30617-7.95958c5.22896-9.05521-1.75316-18.97665-1.75316-18.97665z" fill="#ffdb00" stroke="#ed171f" stroke-linecap="round" stroke-linejoin="round" stroke-width="21.6560879"/>
  <path d="m242.83732 138.13685c-1.03034 4.04893-19.71542 77.84991-22.03608 86.52577-2.31969 8.67678-4.5118 16.8988-6.57922 24.66516 0 0-1.07382 4.89998-6.69134 4.89998h-1.69337c-5.61751 0-6.69134-4.89998-6.69134-4.89998-2.06742-7.76636-4.25855-15.98838-6.57921-24.66516-2.31969-8.67586-21.00188-82.47684-22.03511-86.52577-13.23865-51.86614 85.91354-53.300703 72.30567 0z"/>
  <circle cx="206.7175" cy="301.47748" r="25.593596"/>
</g>
</svg>
